<?xml version="1.0" standalone="no"?>
<!DOCTYPE svg PUBLIC "-//W3C//DTD SVG 20010904//EN"
 "http://www.w3.org/TR/2001/REC-SVG-20010904/DTD/svg10.dtd">
<svg version="1.0" xmlns="http://www.w3.org/2000/svg"
 width="30.000000pt" height="30.000000pt" viewBox="0 0 30.000000 30.000000"
 preserveAspectRatio="xMidYMid meet">

<g transform="translate(0.000000,30.000000) scale(0.100000,-0.100000)"
fill="#000000" stroke="none">
<path d="M54 254 c3 -9 6 -20 6 -25 0 -5 9 -9 20 -9 11 0 20 4 20 9 0 5 3 16
6 25 5 13 -1 16 -26 16 -25 0 -31 -3 -26 -16z"/>
<path d="M148 219 c-14 -8 -18 -24 -18 -79 0 -84 10 -92 103 -88 l62 3 0 85 0
85 -65 2 c-36 2 -73 -2 -82 -8z m132 -79 l0 -70 -50 0 c-27 0 -50 5 -50 10 0
6 18 10 40 10 22 0 40 5 40 10 0 6 -18 10 -40 10 -22 0 -40 5 -40 10 0 6 18
10 40 10 22 0 40 5 40 10 0 6 -18 10 -40 10 -22 0 -40 5 -40 10 0 6 18 10 40
10 22 0 40 5 40 10 0 6 -18 10 -40 10 -22 0 -40 5 -40 10 0 6 23 10 50 10 l50
0 0 -70z"/>
<path d="M44 185 c-4 -10 -13 -13 -25 -10 -17 6 -19 1 -19 -35 0 -36 2 -41 19
-35 12 3 21 0 25 -10 3 -9 18 -15 36 -15 l30 0 0 60 0 60 -30 0 c-18 0 -33 -6
-36 -15z"/>
</g>
</svg>
