<?xml version="1.0" standalone="no"?>
<!DOCTYPE svg PUBLIC "-//W3C//DTD SVG 20010904//EN"
 "http://www.w3.org/TR/2001/REC-SVG-20010904/DTD/svg10.dtd">
<svg version="1.0" xmlns="http://www.w3.org/2000/svg"
 width="326.000000pt" height="336.000000pt" viewBox="0 0 326.000000 336.000000"
 preserveAspectRatio="xMidYMid meet">

<g transform="translate(0.000000,336.000000) scale(0.100000,-0.100000)"
fill="#000000" stroke="none">
<path d="M955 2851 c-15 -68 27 -267 77 -366 86 -168 242 -287 435 -331 38 -8
82 -18 98 -22 22 -5 36 -18 50 -47 18 -35 21 -66 25 -260 l5 -220 40 0 40 0 5
230 c6 249 14 290 63 299 12 3 60 12 105 20 219 41 393 181 466 374 35 92 48
159 50 260 l1 87 -60 3 c-172 9 -375 -75 -496 -205 -26 -27 -63 -83 -82 -124
-38 -78 -77 -243 -77 -323 0 -34 -4 -46 -15 -46 -12 0 -15 13 -15 59 0 165
-78 357 -184 454 -122 112 -307 186 -463 187 -59 0 -62 -1 -68 -29z m340 -290
c93 -70 228 -210 258 -268 16 -29 25 -53 20 -53 -9 0 -363 365 -363 375 0 8
13 0 85 -54z m833 40 c-1 -5 -70 -83 -153 -172 -82 -89 -155 -169 -162 -178
-24 -32 -13 10 18 69 27 52 137 173 198 217 13 10 37 30 55 45 31 28 50 36 44
19z"/>
<path d="M1009 1861 c-57 -22 -105 -64 -133 -116 -20 -39 -21 -50 -21 -450 l0
-410 27 -55 c34 -69 81 -118 144 -150 l49 -25 605 0 605 0 56 26 c68 32 113
77 147 149 l27 55 3 393 c3 444 2 459 -66 524 -72 71 -110 78 -392 78 l-250 0
0 -90 0 -90 246 0 c150 0 253 -4 265 -10 16 -9 19 -22 19 -90 l0 -80 -655 0
-655 0 0 79 c0 53 4 82 13 90 9 7 98 12 258 13 l244 3 3 88 3 87 -248 0 c-214
-1 -254 -3 -294 -19z m398 -596 c42 -49 25 -132 -32 -160 -43 -20 -61 -19
-100 5 -63 39 -69 118 -12 166 26 22 38 25 76 21 33 -4 52 -12 68 -32z m332
21 c31 -17 51 -54 51 -97 0 -39 -56 -99 -93 -99 -67 0 -110 43 -110 111 0 78
79 122 152 85z m371 -1 c42 -22 59 -83 37 -130 -47 -99 -197 -72 -197 35 0 51
12 75 48 94 35 20 76 20 112 1z"/>
</g>
</svg>
